<?xml version="1.0" encoding="UTF-8"?>
<svg id="Layer_2" xmlns="http://www.w3.org/2000/svg" version="1.1" viewBox="0 0 153 49.1">
  <!-- Generator: Adobe Illustrator 29.0.0, SVG Export Plug-In . SVG Version: 2.1.0 Build 186)  -->
  <defs>
    <style>
      .st0 {
        fill: none;
      }

      .st1 {
        fill: #fff;
      }
    </style>
  </defs>
  <path class="st0" d="M79,20.3c-3.5,0-5.2,2.6-5.2,7.8,0,5.1,1.8,7.7,5.1,7.7s5-2.7,5.1-7.9c0-5.1-1.7-7.6-5-7.6Z"/>
  <path class="st0" d="M145.7,29.5c-2.6.5-4,1.7-4,3.7.1,2.1,1.2,3.1,3.3,3.1,3.7,0,5.9-2.2,5.9-5.9v-2.4c-1.5.6-3.3,1.2-5.2,1.6Z"/>
  <path class="st1" d="M19,33h-4.9c-.8,0-1.6.3-2.2.9-1.1,1.2-2.4,1.9-4,1.9-3.7,0-5.5-2.6-5.5-7.8s1.7-7.8,5.2-7.8,3.5.9,4.3,2.7h7.2c-1.1-5.7-4.9-8.5-11.2-8.5-3.2,0-5.8.8-7.7,2.3v22.5c2,1.6,4.6,2.3,7.8,2.3,6.1.1,9.9-3.3,11.1-8.6Z"/>
  <path class="st1" d="M41.4,15.4c-4.9-1.7-9-.6-12.4,3.2v-7.8c0-2.2-1.1-3.3-3.3-3.3h-3.3v33.6h6.6v-13.4c0-4,1.7-7.3,5.6-7.3s5.4,2.9,5.4,7.3v13.4h6.5v-15.2c.2-5.7-1.5-9.2-5.2-10.5Z"/>
  <path class="st1" d="M49.9,27.6v13.5h6.7v-13.6c0-3.8,1.8-5.7,5.5-5.7h2.2v-6.8h-.9c-8.7,0-13.2,4.2-13.4,12.7Z"/>
  <path class="st1" d="M79,14.5c-7.9,0-11.9,4.5-11.9,13.6s4,13.5,11.9,13.5,11.9-4.5,11.9-13.5-4-13.6-11.9-13.6ZM79,35.8c-3.4,0-5.1-2.6-5.1-7.7,0-5.2,1.7-7.8,5.2-7.8s5,2.5,5,7.6c0,5.2-1.7,7.9-5.1,7.9Z"/>
  <path class="st1" d="M120.9,14.6c-3.4,0-5.9.7-7.8,2.1-1.9-1.5-4.4-2.2-7.8-2.2-7.5,0-11.2,3.7-11.2,11.2v15.4h6.7v-16.7c0-2.7,1.5-4.1,4.4-4.1s4.4,1.3,4.5,4.1v16.7h6.6v-16.6c0-2.7,1.5-4.1,4.4-4.1s4.4,1.3,4.5,4.1v13.4c0,2.1,1.1,3.1,3.3,3.3h3.4v-15.4c0-7.5-3.7-11.2-11.1-11.2Z"/>
  <path class="st1" d="M146.3,14.5c-6,0-9.4,2.4-10.2,7.2h6.6c.3-1.2,1.6-1.8,4-1.8s4.1.7,4.3,2.2c0,1.4-1.4,2.3-4.3,2.6-6.6.6-11.2,2.3-11.3,8.6,0,5.8,4.4,8.7,10.6,8.2,2.8-.2,5.2-.8,7.1-2V15.6c-1.7-.7-3.9-1-6.7-1ZM145.1,36.2c-2.1,0-3.2-1-3.3-3.1,0-1.9,1.3-3.2,4-3.7,1.9-.4,3.7-.9,5.2-1.6v2.4c0,3.7-2.2,5.9-5.9,5.9Z"/>
</svg>